<svg viewBox="0 0 21 19" fill="none" xmlns="http://www.w3.org/2000/svg">
<path d="M7.04766 2.99002C7.04766 2.49002 6.64766 2.09002 6.14766 2.09002H1.49766C0.997656 2.09002 0.597656 2.49002 0.597656 2.99002C0.597656 3.49002 0.997656 3.89002 1.49766 3.89002H6.14766C6.63766 3.89002 7.04766 3.48002 7.04766 2.99002ZM14.5477 9.50002C14.5477 10 14.9477 10.4 15.4477 10.4H20.0977C20.5977 10.4 20.9977 10 20.9977 9.50002C20.9977 9.00002 20.5977 8.60002 20.0977 8.60002H15.4477C14.9577 8.60002 14.5477 9.00002 14.5477 9.50002ZM7.04766 16.01C7.04766 15.51 6.64766 15.11 6.14766 15.11H1.49766C0.997656 15.11 0.597656 15.51 0.597656 16.01C0.597656 16.51 0.997656 16.91 1.49766 16.91H6.14766C6.63766 16.91 7.04766 16.51 7.04766 16.01ZM8.96966 14.15V17.87C8.96966 18.37 9.36966 18.77 9.86966 18.77C10.3697 18.77 10.7697 18.37 10.7697 17.87V16.91H20.0997C20.5997 16.91 20.9997 16.51 20.9997 16.01C20.9997 15.51 20.5997 15.11 20.0997 15.11L10.7697 15.11V14.15C10.7697 13.65 10.3697 13.25 9.86966 13.25C9.36966 13.25 8.96966 13.66 8.96966 14.15ZM8.96966 1.13002L8.96966 4.85002C8.96966 5.35002 9.36966 5.75002 9.86966 5.75002C10.3697 5.75002 10.7697 5.35002 10.7697 4.85002L10.7697 3.89002L20.0997 3.89002C20.5997 3.89002 20.9997 3.49002 20.9997 2.99002C20.9997 2.49002 20.5997 2.09002 20.0997 2.09002H10.7697V1.13002C10.7697 0.630018 10.3697 0.230019 9.86966 0.230019C9.36966 0.230019 8.96966 0.630018 8.96966 1.13002ZM10.8277 7.64002V8.60002H1.49766C0.997656 8.60002 0.597656 9.00002 0.597656 9.50002C0.597656 10 0.997656 10.4 1.49766 10.4H10.8277V11.36C10.8277 11.86 11.2277 12.26 11.7277 12.26C12.2277 12.26 12.6277 11.86 12.6277 11.36V7.64002C12.6277 7.14002 12.2277 6.74002 11.7277 6.74002C11.2277 6.74002 10.8277 7.14002 10.8277 7.64002Z" fill="#34455D"/>
</svg>
